<svg width="484" height="484" viewBox="0 0 484 484" fill="none" xmlns="http://www.w3.org/2000/svg">
<circle cx="242" cy="242" r="57.7857" stroke="#1A1B1C"/>
<circle cx="242" cy="242" r="51" fill="#1A1B1C"/>
<path d="M274.668 209.412C266.315 201.038 254.762 195.857 242 195.857C239.046 195.857 236.158 196.134 233.359 196.665C238.133 204.563 255.579 232.255 258.94 237.18C259.593 238.137 260.753 236.237 267.778 222.693L274.668 209.412Z" fill="#FCFCFC"/>
<path d="M199.088 225.004C204.581 211.146 216.593 200.582 231.341 197.094C233.087 199.713 236.422 204.887 240.066 210.649L249.326 225.291H222.885C210.126 225.291 202.669 225.208 199.088 225.004Z" fill="#FCFCFC"/>
<path d="M205.869 270.703C199.602 262.825 195.857 252.85 195.857 242C195.857 236.801 196.717 231.803 198.302 227.14H213.166C230.552 227.14 230.947 227.167 230.326 228.33C229.095 230.634 210.823 262.262 205.869 270.703Z" fill="#FCFCFC"/>
<path d="M250.964 287.273C248.064 287.843 245.067 288.143 242 288.143C228.191 288.143 215.799 282.077 207.343 272.465C209.17 268.406 213.929 259.932 222.171 246.012C222.946 244.702 223.732 243.781 223.917 243.966C224.101 244.15 230.603 254.52 238.367 267.008L250.964 287.273Z" fill="#FCFCFC"/>
<path d="M285.529 257.348C280.372 271.973 268.053 283.22 252.784 286.876C248.578 280.39 234.612 257.957 234.612 257.609C234.612 257.466 246.681 257.348 261.432 257.348H285.529Z" fill="#FCFCFC"/>
<path d="M275.901 210.697C283.5 218.922 288.143 229.919 288.143 242C288.143 246.923 287.372 251.666 285.944 256.115H270.596C260.624 256.115 252.465 255.965 252.465 255.78C252.465 255.4 272.436 217.016 275.901 210.697Z" fill="#FCFCFC"/>
<path d="M322.988 126L319.082 116.2H318.004L314.098 126H315.344L316.366 123.354H320.734L321.742 126H322.988ZM318.55 117.67L320.314 122.29H316.772L318.55 117.67ZM330.19 126V124.922H325.29V116.2H324.1V126H330.19ZM337.519 126V124.922H332.619V116.2H331.429V126H337.519ZM342.714 126.112C345.472 126.112 347.53 123.984 347.53 121.1C347.53 118.216 345.472 116.088 342.714 116.088C339.956 116.088 337.912 118.216 337.912 121.1C337.912 123.984 339.956 126.112 342.714 126.112ZM342.714 125.034C340.656 125.034 339.144 123.354 339.144 121.1C339.144 118.846 340.656 117.166 342.714 117.166C344.772 117.166 346.298 118.846 346.298 121.1C346.298 123.354 344.772 125.034 342.714 125.034ZM352.278 126L354.714 118.034L357.136 126H358.368L361.364 116.2H360.146L357.71 124.194L355.246 116.2H354.182L351.704 124.194L349.296 116.2H348.05L351.088 126H352.278ZM374.011 126L370.105 116.2H369.027L365.121 126H366.367L367.389 123.354H371.757L372.765 126H374.011ZM369.573 117.67L371.337 122.29H367.795L369.573 117.67ZM375.123 125.244C375.123 124.899 375.207 124.656 375.375 124.516C375.543 124.376 375.744 124.306 375.977 124.306C376.22 124.306 376.425 124.376 376.593 124.516C376.771 124.656 376.859 124.899 376.859 125.244C376.859 125.58 376.771 125.823 376.593 125.972C376.425 126.121 376.22 126.196 375.977 126.196C375.744 126.196 375.543 126.121 375.375 125.972C375.207 125.823 375.123 125.58 375.123 125.244ZM380.087 126V116.2H378.897V126H380.087ZM382.137 125.244C382.137 124.899 382.221 124.656 382.389 124.516C382.557 124.376 382.758 124.306 382.991 124.306C383.234 124.306 383.439 124.376 383.607 124.516C383.784 124.656 383.873 124.899 383.873 125.244C383.873 125.58 383.784 125.823 383.607 125.972C383.439 126.121 383.234 126.196 382.991 126.196C382.758 126.196 382.557 126.121 382.389 125.972C382.221 125.823 382.137 125.58 382.137 125.244ZM318.508 150V141.278H321.63V140.2H314.168V141.278H317.304V150H318.508ZM326.499 150.112C329.257 150.112 331.315 147.984 331.315 145.1C331.315 142.216 329.257 140.088 326.499 140.088C323.741 140.088 321.697 142.216 321.697 145.1C321.697 147.984 323.741 150.112 326.499 150.112ZM326.499 149.034C324.441 149.034 322.929 147.354 322.929 145.1C322.929 142.846 324.441 141.166 326.499 141.166C328.557 141.166 330.083 142.846 330.083 145.1C330.083 147.354 328.557 149.034 326.499 149.034ZM339.433 150.112C341.477 150.112 343.017 149.104 343.017 147.326C343.017 143.644 337.249 145.198 337.249 142.692C337.249 141.754 338.033 141.166 339.363 141.166C340.679 141.166 341.533 141.88 341.645 142.986H342.821C342.681 141.222 341.323 140.088 339.363 140.088C337.403 140.088 336.045 141.138 336.045 142.692C336.045 146.192 341.771 144.806 341.771 147.326C341.771 148.516 340.791 149.034 339.433 149.034C337.907 149.034 337.011 148.152 336.885 146.794H335.709C335.835 148.796 337.235 150.112 339.433 150.112ZM348.837 150.112C351.007 150.112 352.757 148.782 352.967 146.948H351.735C351.595 148.152 350.363 149.034 348.837 149.034C346.793 149.034 345.351 147.648 345.351 145.1C345.351 142.552 346.793 141.166 348.837 141.166C350.335 141.166 351.553 142.048 351.721 143.252H352.981C352.715 141.418 350.965 140.088 348.837 140.088C346.401 140.088 344.119 141.712 344.119 145.1C344.119 148.474 346.387 150.112 348.837 150.112ZM362.349 150L358.443 140.2H357.365L353.459 150H354.705L355.727 147.354H360.095L361.103 150H362.349ZM357.911 141.67L359.675 146.29H356.133L357.911 141.67ZM364.652 150V142.048L369.692 150H371.064V140.2H369.874V148.18L364.82 140.2H363.462V150H364.652ZM380.159 150V145.898L383.631 140.2H382.273L379.571 144.75L376.855 140.2H375.497L378.969 145.898V150H380.159ZM388.365 150.112C391.123 150.112 393.181 147.984 393.181 145.1C393.181 142.216 391.123 140.088 388.365 140.088C385.607 140.088 383.563 142.216 383.563 145.1C383.563 147.984 385.607 150.112 388.365 150.112ZM388.365 149.034C386.307 149.034 384.795 147.354 384.795 145.1C384.795 142.846 386.307 141.166 388.365 141.166C390.423 141.166 391.949 142.846 391.949 145.1C391.949 147.354 390.423 149.034 388.365 149.034ZM398.312 150.112C400.538 150.112 402.008 148.782 402.008 146.64V140.2H400.846V146.696C400.846 148.138 399.838 149.034 398.312 149.034C396.8 149.034 395.792 148.138 395.792 146.696V140.2H394.616V146.64C394.616 148.782 396.086 150.112 398.312 150.112ZM409.209 145.352C410.133 144.918 410.749 144.148 410.749 143.07C410.749 141.362 409.559 140.2 407.627 140.2H403.917V150H405.107V146.01H407.767C408.691 146.01 409.307 146.682 409.363 147.634L409.531 150H410.679L410.511 147.564C410.441 146.57 409.979 145.772 409.209 145.352ZM407.627 141.264C408.999 141.264 409.517 142.104 409.517 143.07C409.517 144.036 408.999 144.932 407.627 144.932H405.107V141.264H407.627ZM417.494 150V145.59H421.512V144.512H417.494V141.278H422.436V140.2H416.304V150H417.494ZM430.9 150L426.994 140.2H425.916L422.01 150H423.256L424.278 147.354H428.646L429.654 150H430.9ZM426.462 141.67L428.226 146.29H424.684L426.462 141.67ZM435.982 150.112C438.152 150.112 439.902 148.782 440.112 146.948H438.88C438.74 148.152 437.508 149.034 435.982 149.034C433.938 149.034 432.496 147.648 432.496 145.1C432.496 142.552 433.938 141.166 435.982 141.166C437.48 141.166 438.698 142.048 438.866 143.252H440.126C439.86 141.418 438.11 140.088 435.982 140.088C433.546 140.088 431.264 141.712 431.264 145.1C431.264 148.474 433.532 150.112 435.982 150.112ZM447.91 150V148.922H442.814V145.478H446.832V144.4H442.814V141.278H447.756V140.2H441.624V150H447.91Z" fill="#1A1B1C"/>
<path d="M242 184L304 129" stroke="#1A1B1C"/>
<circle cx="305.5" cy="127.5" r="2" stroke="#1A1B1C"/>
<path opacity="0.3" d="M242 1L483 242L242 483L1 242L242 1Z" stroke="#A0A4AB" stroke-width="2" stroke-linecap="round" stroke-linejoin="round" stroke-dasharray="0.1 8"/>
<path opacity="0.6" d="M242 19.8281L464.172 242L242 464.172L19.8281 242L242 19.8281Z" stroke="#A0A4AB" stroke-width="2" stroke-linecap="round" stroke-linejoin="round" stroke-dasharray="0.1 8"/>
<path d="M242 39.4091L444.59 242L242 444.59L39.4091 242L242 39.4091Z" stroke="#A0A4AB" stroke-width="2" stroke-linecap="round" stroke-linejoin="round" stroke-dasharray="0.1 8"/>
</svg>
